<svg width="3975" height="1463" viewBox="0 0 3975 1463" fill="none" xmlns="http://www.w3.org/2000/svg">
    <rect width="3975" height="1463" rx="120" fill="black"/>
    <path d="M402.5 886V757H422.5V778H423.5C424.833 774.833 426.5 771.833 428.5 769C430.5 766 432.917 763.417 435.75 761.25C438.75 759.083 442.25 757.333 446.25 756C450.25 754.667 454.917 754 460.25 754C473.75 754 484.583 758.333 492.75 767C500.917 775.5 505 787.583 505 803.25V886H485V806.75C485 794.917 482.417 786.167 477.25 780.5C472.083 774.667 464.5 771.75 454.5 771.75C450.5 771.75 446.583 772.25 442.75 773.25C438.917 774.25 435.5 775.75 432.5 777.75C429.5 779.75 427.083 782.333 425.25 785.5C423.417 788.667 422.5 792.333 422.5 796.5V886H402.5ZM602.902 889C593.902 889 585.736 887.417 578.402 884.25C571.236 881.083 565.069 876.583 559.902 870.75C554.902 864.75 551.069 857.667 548.402 849.5C545.736 841.167 544.402 831.833 544.402 821.5C544.402 811.333 545.736 802.083 548.402 793.75C551.069 785.417 554.902 778.333 559.902 772.5C565.069 766.5 571.236 761.917 578.402 758.75C585.736 755.583 593.902 754 602.902 754C611.902 754 619.986 755.583 627.152 758.75C634.486 761.917 640.652 766.5 645.652 772.5C650.819 778.333 654.736 785.417 657.402 793.75C660.069 802.083 661.402 811.333 661.402 821.5C661.402 831.833 660.069 841.167 657.402 849.5C654.736 857.667 650.819 864.75 645.652 870.75C640.652 876.583 634.486 881.083 627.152 884.25C619.986 887.417 611.902 889 602.902 889ZM602.902 871.75C614.069 871.75 623.069 868.417 629.902 861.75C636.736 855.083 640.152 844.75 640.152 830.75V812.25C640.152 798.25 636.736 787.917 629.902 781.25C623.069 774.583 614.069 771.25 602.902 771.25C591.736 771.25 582.736 774.583 575.902 781.25C569.069 787.917 565.652 798.25 565.652 812.25V830.75C565.652 844.75 569.069 855.083 575.902 861.75C582.736 868.417 591.736 871.75 602.902 871.75ZM759.055 886C749.221 886 741.971 883.25 737.305 877.75C732.805 872.25 730.555 865.167 730.555 856.5V774H687.555V757H719.555C723.888 757 726.888 756.167 728.555 754.5C730.388 752.667 731.305 749.583 731.305 745.25V711.5H750.555V757H809.305V774H750.555V869H809.305V886H759.055ZM910.707 728.5C904.874 728.5 900.79 727.333 898.457 725C896.124 722.5 894.957 719.417 894.957 715.75V711.75C894.957 708.083 896.124 705.083 898.457 702.75C900.79 700.25 904.874 699 910.707 699C916.54 699 920.624 700.25 922.957 702.75C925.29 705.083 926.457 708.083 926.457 711.75V715.75C926.457 719.417 925.29 722.5 922.957 725C920.624 727.333 916.54 728.5 910.707 728.5ZM854.207 869H900.707V774H854.207V757H920.707V869H964.207V886H854.207V869ZM1052.61 889C1043.61 889 1035.44 887.417 1028.11 884.25C1020.94 881.083 1014.78 876.583 1009.61 870.75C1004.61 864.75 1000.78 857.667 998.109 849.5C995.443 841.167 994.109 831.833 994.109 821.5C994.109 811.333 995.443 802.083 998.109 793.75C1000.78 785.417 1004.61 778.333 1009.61 772.5C1014.78 766.5 1020.94 761.917 1028.11 758.75C1035.44 755.583 1043.61 754 1052.61 754C1061.61 754 1069.69 755.583 1076.86 758.75C1084.19 761.917 1090.36 766.5 1095.36 772.5C1100.53 778.333 1104.44 785.417 1107.11 793.75C1109.78 802.083 1111.11 811.333 1111.11 821.5C1111.11 831.833 1109.78 841.167 1107.11 849.5C1104.44 857.667 1100.53 864.75 1095.36 870.75C1090.36 876.583 1084.19 881.083 1076.86 884.25C1069.69 887.417 1061.61 889 1052.61 889ZM1052.61 871.75C1063.78 871.75 1072.78 868.417 1079.61 861.75C1086.44 855.083 1089.86 844.75 1089.86 830.75V812.25C1089.86 798.25 1086.44 787.917 1079.61 781.25C1072.78 774.583 1063.78 771.25 1052.61 771.25C1041.44 771.25 1032.44 774.583 1025.61 781.25C1018.78 787.917 1015.36 798.25 1015.36 812.25V830.75C1015.36 844.75 1018.78 855.083 1025.61 861.75C1032.44 868.417 1041.44 871.75 1052.61 871.75ZM1152.01 886V757H1172.01V778H1173.01C1174.35 774.833 1176.01 771.833 1178.01 769C1180.01 766 1182.43 763.417 1185.26 761.25C1188.26 759.083 1191.76 757.333 1195.76 756C1199.76 754.667 1204.43 754 1209.76 754C1223.26 754 1234.1 758.333 1242.26 767C1250.43 775.5 1254.51 787.583 1254.51 803.25V886H1234.51V806.75C1234.51 794.917 1231.93 786.167 1226.76 780.5C1221.6 774.667 1214.01 771.75 1204.01 771.75C1200.01 771.75 1196.1 772.25 1192.26 773.25C1188.43 774.25 1185.01 775.75 1182.01 777.75C1179.01 779.75 1176.6 782.333 1174.76 785.5C1172.93 788.667 1172.01 792.333 1172.01 796.5V886H1152.01ZM1352.41 888.25C1345.58 888.25 1340.75 886.833 1337.91 884C1335.25 881.167 1333.91 877.583 1333.91 873.25V868.75C1333.91 864.417 1335.25 860.833 1337.91 858C1340.75 855.167 1345.58 853.75 1352.41 853.75C1359.25 853.75 1364 855.167 1366.66 858C1369.5 860.833 1370.91 864.417 1370.91 868.75V873.25C1370.91 877.583 1369.5 881.167 1366.66 884C1364 886.833 1359.25 888.25 1352.41 888.25Z" fill="white"/>
    <path d="M3291 698L3185 504.5L3404.5 508.5L3291 698Z" fill="white" stroke="black"/>
    <rect width="118.948" height="507.299" transform="matrix(0.907515 -0.420019 0.454872 0.890557 2657.84 508.845)" fill="white"/>
    <rect width="101.357" height="231.365" transform="matrix(0.893453 0.449156 -0.485139 0.874437 2974.36 778.329)" fill="black"/>
    <rect width="118.948" height="507.299" transform="matrix(0.907515 -0.420019 0.454872 0.890557 2917.96 508.845)" fill="white"/>
    <path d="M3291.49 566L3287.69 717.44L3151.14 494.603L3291.49 566Z" fill="black"/>
    <rect x="2658" y="417" width="737" height="99" fill="black"/>
    <rect x="2658" y="947" width="822" height="99" fill="black"/>
    <rect x="3233" y="893" width="110" height="99" fill="black"/>
    <rect width="82.2713" height="583.391" transform="matrix(0.893453 0.449156 -0.485139 0.874437 3406.03 470)" fill="black"/>
    <rect x="3381" y="1046" width="629" height="99" transform="rotate(-90 3381 1046)" fill="black"/>
    <rect x="2562" y="1046" width="629" height="99" transform="rotate(-90 2562 1046)" fill="black"/>
    <rect x="378" y="508" width="705" height="122" rx="34" fill="#1C1C1C"/>
    <path d="M440.97 596.16H434.205C431.418 596.16 429.072 595.683 427.165 594.73C425.295 593.813 423.773 592.402 422.6 590.495C421.463 588.625 420.638 586.278 420.125 583.455C419.648 580.632 419.41 577.313 419.41 573.5C419.41 569.247 419.685 565.69 420.235 562.83C420.822 559.933 421.665 557.605 422.765 555.845C423.865 554.085 425.222 552.838 426.835 552.105C428.485 551.335 430.392 550.95 432.555 550.95C434.755 550.95 436.625 551.298 438.165 551.995C439.742 552.692 441.025 553.645 442.015 554.855C443.005 556.065 443.72 557.513 444.16 559.2C444.637 560.85 444.875 562.628 444.875 564.535V584.995H440.97V581.86H440.695C440.328 582.813 439.723 583.693 438.88 584.5C438.037 585.27 436.808 585.655 435.195 585.655C432.958 585.655 431.18 584.72 429.86 582.85C428.54 580.943 427.88 577.955 427.88 573.885C427.88 569.815 428.54 566.827 429.86 564.92C431.18 563.013 432.958 562.06 435.195 562.06C436.002 562.06 436.698 562.17 437.285 562.39C437.908 562.61 438.44 562.903 438.88 563.27C439.32 563.637 439.687 564.04 439.98 564.48C440.273 564.92 440.512 565.378 440.695 565.855H440.97V564.535C440.97 561.418 440.31 558.962 438.99 557.165C437.707 555.368 435.598 554.47 432.665 554.47C429.402 554.47 427.055 555.735 425.625 558.265C424.232 560.758 423.535 564.773 423.535 570.31V577.405C423.535 579.532 423.682 581.53 423.975 583.4C424.268 585.233 424.8 586.847 425.57 588.24C426.377 589.597 427.458 590.66 428.815 591.43C430.208 592.237 432.005 592.64 434.205 592.64H440.97V596.16ZM436.625 582.355C437.945 582.355 438.99 581.988 439.76 581.255C440.567 580.522 440.97 579.458 440.97 578.065V569.65C440.97 568.257 440.567 567.193 439.76 566.46C438.99 565.727 437.945 565.36 436.625 565.36C435.085 565.36 433.912 565.892 433.105 566.955C432.335 567.982 431.95 569.723 431.95 572.18V575.535C431.95 577.992 432.335 579.752 433.105 580.815C433.912 581.842 435.085 582.355 436.625 582.355ZM450.629 561.62H454.534L457.779 586.15H458.274L463.114 561.62H467.954L472.794 586.15H473.289L476.534 561.62H480.329L475.984 590H470.264L465.754 566.24H465.314L460.694 590H454.974L450.629 561.62ZM509.182 590C507.459 590 506.23 589.56 505.497 588.68C504.764 587.8 504.305 586.7 504.122 585.38H503.847C503.224 587.03 502.215 588.332 500.822 589.285C499.465 590.202 497.632 590.66 495.322 590.66C492.352 590.66 489.987 589.89 488.227 588.35C486.467 586.81 485.587 584.702 485.587 582.025C485.587 579.385 486.54 577.35 488.447 575.92C490.39 574.49 493.507 573.775 497.797 573.775H503.847V570.97C503.847 568.88 503.26 567.322 502.087 566.295C500.914 565.232 499.245 564.7 497.082 564.7C495.175 564.7 493.617 565.085 492.407 565.855C491.197 566.588 490.225 567.597 489.492 568.88L486.522 566.68C486.889 565.947 487.384 565.232 488.007 564.535C488.63 563.838 489.4 563.233 490.317 562.72C491.234 562.17 492.279 561.748 493.452 561.455C494.625 561.125 495.927 560.96 497.357 560.96C500.694 560.96 503.334 561.803 505.277 563.49C507.257 565.177 508.247 567.523 508.247 570.53V586.15H512.207V590H509.182ZM496.092 586.975C497.229 586.975 498.255 586.847 499.172 586.59C500.125 586.297 500.95 585.93 501.647 585.49C502.344 585.013 502.875 584.463 503.242 583.84C503.645 583.18 503.847 582.483 503.847 581.75V577.075H497.797C495.157 577.075 493.232 577.442 492.022 578.175C490.812 578.908 490.207 579.972 490.207 581.365V582.52C490.207 583.987 490.72 585.105 491.747 585.875C492.81 586.608 494.259 586.975 496.092 586.975ZM520.326 590V561.62H524.726V566.24H524.946C525.239 565.543 525.606 564.883 526.046 564.26C526.486 563.6 527.017 563.032 527.641 562.555C528.301 562.078 529.071 561.693 529.951 561.4C530.831 561.107 531.857 560.96 533.031 560.96C536.001 560.96 538.384 561.913 540.181 563.82C541.977 565.69 542.876 568.348 542.876 571.795V590H538.476V572.565C538.476 569.962 537.907 568.037 536.771 566.79C535.634 565.507 533.966 564.865 531.766 564.865C530.886 564.865 530.024 564.975 529.181 565.195C528.337 565.415 527.586 565.745 526.926 566.185C526.266 566.625 525.734 567.193 525.331 567.89C524.927 568.587 524.726 569.393 524.726 570.31V590H520.326ZM553.304 590V561.62H557.704V566.24H557.924C558.217 565.543 558.584 564.883 559.024 564.26C559.464 563.6 559.996 563.032 560.619 562.555C561.279 562.078 562.049 561.693 562.929 561.4C563.809 561.107 564.836 560.96 566.009 560.96C568.979 560.96 571.362 561.913 573.159 563.82C574.956 565.69 575.854 568.348 575.854 571.795V590H571.454V572.565C571.454 569.962 570.886 568.037 569.749 566.79C568.612 565.507 566.944 564.865 564.744 564.865C563.864 564.865 563.002 564.975 562.159 565.195C561.316 565.415 560.564 565.745 559.904 566.185C559.244 566.625 558.712 567.193 558.309 567.89C557.906 568.587 557.704 569.393 557.704 570.31V590H553.304ZM597.888 590.66C595.834 590.66 593.983 590.312 592.333 589.615C590.719 588.918 589.326 587.928 588.153 586.645C587.016 585.325 586.136 583.767 585.513 581.97C584.889 580.137 584.578 578.102 584.578 575.865C584.578 573.592 584.889 571.538 585.513 569.705C586.173 567.872 587.071 566.313 588.208 565.03C589.344 563.71 590.701 562.702 592.278 562.005C593.891 561.308 595.669 560.96 597.613 560.96C599.519 560.96 601.243 561.308 602.783 562.005C604.359 562.702 605.698 563.673 606.798 564.92C607.898 566.13 608.741 567.578 609.328 569.265C609.914 570.952 610.208 572.803 610.208 574.82V576.91H589.198V578.23C589.198 579.477 589.399 580.632 589.803 581.695C590.206 582.758 590.774 583.675 591.508 584.445C592.278 585.215 593.194 585.82 594.258 586.26C595.358 586.663 596.568 586.865 597.888 586.865C599.794 586.865 601.444 586.425 602.838 585.545C604.231 584.665 605.294 583.455 606.028 581.915L609.273 584.115C608.429 586.022 607.018 587.598 605.038 588.845C603.094 590.055 600.711 590.66 597.888 590.66ZM597.613 564.59C596.403 564.59 595.284 564.81 594.258 565.25C593.231 565.69 592.333 566.295 591.563 567.065C590.829 567.835 590.243 568.752 589.803 569.815C589.399 570.842 589.198 571.978 589.198 573.225V573.61H605.478V573.005C605.478 571.758 605.276 570.622 604.873 569.595C604.506 568.568 603.974 567.688 603.278 566.955C602.618 566.185 601.793 565.598 600.803 565.195C599.849 564.792 598.786 564.59 597.613 564.59ZM618.106 586.26H626.411V565.36H618.106V561.62H630.811V568.77H631.086C631.673 566.533 632.773 564.792 634.386 563.545C636.036 562.262 638.126 561.62 640.656 561.62H644.616V566.02H639.281C636.751 566.02 634.698 566.753 633.121 568.22C631.581 569.687 630.811 571.612 630.811 573.995V586.26H641.811V590H618.106V586.26ZM663.35 590.495C661.846 590.495 660.783 590.183 660.16 589.56C659.573 588.937 659.28 588.148 659.28 587.195V586.205C659.28 585.252 659.573 584.463 660.16 583.84C660.783 583.217 661.846 582.905 663.35 582.905C664.853 582.905 665.898 583.217 666.485 583.84C667.108 584.463 667.42 585.252 667.42 586.205V587.195C667.42 588.148 667.108 588.937 666.485 589.56C665.898 590.183 664.853 590.495 663.35 590.495ZM681.478 561.62H685.383L688.628 586.15H689.123L693.963 561.62H698.803L703.643 586.15H704.138L707.383 561.62H711.178L706.833 590H701.113L696.603 566.24H696.163L691.543 590H685.823L681.478 561.62ZM729.307 590.66C727.327 590.66 725.53 590.312 723.917 589.615C722.34 588.918 720.983 587.928 719.847 586.645C718.747 585.325 717.903 583.767 717.317 581.97C716.73 580.137 716.437 578.083 716.437 575.81C716.437 573.573 716.73 571.538 717.317 569.705C717.903 567.872 718.747 566.313 719.847 565.03C720.983 563.71 722.34 562.702 723.917 562.005C725.53 561.308 727.327 560.96 729.307 560.96C731.287 560.96 733.065 561.308 734.642 562.005C736.255 562.702 737.612 563.71 738.712 565.03C739.848 566.313 740.71 567.872 741.297 569.705C741.883 571.538 742.177 573.573 742.177 575.81C742.177 578.083 741.883 580.137 741.297 581.97C740.71 583.767 739.848 585.325 738.712 586.645C737.612 587.928 736.255 588.918 734.642 589.615C733.065 590.312 731.287 590.66 729.307 590.66ZM729.307 586.865C731.763 586.865 733.743 586.132 735.247 584.665C736.75 583.198 737.502 580.925 737.502 577.845V573.775C737.502 570.695 736.75 568.422 735.247 566.955C733.743 565.488 731.763 564.755 729.307 564.755C726.85 564.755 724.87 565.488 723.367 566.955C721.863 568.422 721.112 570.695 721.112 573.775V577.845C721.112 580.925 721.863 583.198 723.367 584.665C724.87 586.132 726.85 586.865 729.307 586.865ZM750.02 586.26H758.325V565.36H750.02V561.62H762.725V568.77H763C763.587 566.533 764.687 564.792 766.3 563.545C767.95 562.262 770.04 561.62 772.57 561.62H776.53V566.02H771.195C768.665 566.02 766.612 566.753 765.035 568.22C763.495 569.687 762.725 571.612 762.725 573.995V586.26H773.725V590H750.02V586.26ZM784.539 549.3H788.939V574.985H789.159L794.109 570.31L803.569 561.62H808.959L797.189 572.73L810.334 590H804.889L793.834 575.26L788.939 579.715V590H784.539V549.3ZM816.692 597.59L835.832 548.2H839.792L820.652 597.59H816.692ZM850.111 590V561.62H854.511V566.24H854.731C855.024 565.543 855.391 564.883 855.831 564.26C856.271 563.6 856.802 563.032 857.426 562.555C858.086 562.078 858.856 561.693 859.736 561.4C860.616 561.107 861.642 560.96 862.816 560.96C865.786 560.96 868.169 561.913 869.966 563.82C871.762 565.69 872.661 568.348 872.661 571.795V590H868.261V572.565C868.261 569.962 867.692 568.037 866.556 566.79C865.419 565.507 863.751 564.865 861.551 564.865C860.671 564.865 859.809 564.975 858.966 565.195C858.122 565.415 857.371 565.745 856.711 566.185C856.051 566.625 855.519 567.193 855.116 567.89C854.712 568.587 854.511 569.393 854.511 570.31V590H850.111ZM894.199 590.66C892.219 590.66 890.423 590.312 888.809 589.615C887.233 588.918 885.876 587.928 884.739 586.645C883.639 585.325 882.796 583.767 882.209 581.97C881.623 580.137 881.329 578.083 881.329 575.81C881.329 573.573 881.623 571.538 882.209 569.705C882.796 567.872 883.639 566.313 884.739 565.03C885.876 563.71 887.233 562.702 888.809 562.005C890.423 561.308 892.219 560.96 894.199 560.96C896.179 560.96 897.958 561.308 899.534 562.005C901.148 562.702 902.504 563.71 903.604 565.03C904.741 566.313 905.603 567.872 906.189 569.705C906.776 571.538 907.069 573.573 907.069 575.81C907.069 578.083 906.776 580.137 906.189 581.97C905.603 583.767 904.741 585.325 903.604 586.645C902.504 587.928 901.148 588.918 899.534 589.615C897.958 590.312 896.179 590.66 894.199 590.66ZM894.199 586.865C896.656 586.865 898.636 586.132 900.139 584.665C901.643 583.198 902.394 580.925 902.394 577.845V573.775C902.394 570.695 901.643 568.422 900.139 566.955C898.636 565.488 896.656 564.755 894.199 564.755C891.743 564.755 889.763 565.488 888.259 566.955C886.756 568.422 886.004 570.695 886.004 573.775V577.845C886.004 580.925 886.756 583.198 888.259 584.665C889.763 586.132 891.743 586.865 894.199 586.865ZM928.553 590C926.389 590 924.794 589.395 923.768 588.185C922.778 586.975 922.283 585.417 922.283 583.51V565.36H912.823V561.62H919.863C920.816 561.62 921.476 561.437 921.843 561.07C922.246 560.667 922.448 559.988 922.448 559.035V551.61H926.683V561.62H939.608V565.36H926.683V586.26H939.608V590H928.553ZM961.916 555.35C960.633 555.35 959.735 555.093 959.221 554.58C958.708 554.03 958.451 553.352 958.451 552.545V551.665C958.451 550.858 958.708 550.198 959.221 549.685C959.735 549.135 960.633 548.86 961.916 548.86C963.2 548.86 964.098 549.135 964.611 549.685C965.125 550.198 965.381 550.858 965.381 551.665V552.545C965.381 553.352 965.125 554.03 964.611 554.58C964.098 555.093 963.2 555.35 961.916 555.35ZM949.486 586.26H959.716V565.36H949.486V561.62H964.116V586.26H973.686V590H949.486V586.26ZM993.135 590.66C991.155 590.66 989.358 590.312 987.745 589.615C986.168 588.918 984.811 587.928 983.675 586.645C982.575 585.325 981.731 583.767 981.145 581.97C980.558 580.137 980.265 578.083 980.265 575.81C980.265 573.573 980.558 571.538 981.145 569.705C981.731 567.872 982.575 566.313 983.675 565.03C984.811 563.71 986.168 562.702 987.745 562.005C989.358 561.308 991.155 560.96 993.135 560.96C995.115 560.96 996.893 561.308 998.47 562.005C1000.08 562.702 1001.44 563.71 1002.54 565.03C1003.68 566.313 1004.54 567.872 1005.12 569.705C1005.71 571.538 1006 573.573 1006 575.81C1006 578.083 1005.71 580.137 1005.12 581.97C1004.54 583.767 1003.68 585.325 1002.54 586.645C1001.44 587.928 1000.08 588.918 998.47 589.615C996.893 590.312 995.115 590.66 993.135 590.66ZM993.135 586.865C995.591 586.865 997.571 586.132 999.075 584.665C1000.58 583.198 1001.33 580.925 1001.33 577.845V573.775C1001.33 570.695 1000.58 568.422 999.075 566.955C997.571 565.488 995.591 564.755 993.135 564.755C990.678 564.755 988.698 565.488 987.195 566.955C985.691 568.422 984.94 570.695 984.94 573.775V577.845C984.94 580.925 985.691 583.198 987.195 584.665C988.698 586.132 990.678 586.865 993.135 586.865ZM1015 590V561.62H1019.4V566.24H1019.62C1019.92 565.543 1020.28 564.883 1020.72 564.26C1021.16 563.6 1021.69 563.032 1022.32 562.555C1022.98 562.078 1023.75 561.693 1024.63 561.4C1025.51 561.107 1026.53 560.96 1027.71 560.96C1030.68 560.96 1033.06 561.913 1034.86 563.82C1036.65 565.69 1037.55 568.348 1037.55 571.795V590H1033.15V572.565C1033.15 569.962 1032.58 568.037 1031.45 566.79C1030.31 565.507 1028.64 564.865 1026.44 564.865C1025.56 564.865 1024.7 564.975 1023.86 565.195C1023.01 565.415 1022.26 565.745 1021.6 566.185C1020.94 566.625 1020.41 567.193 1020.01 567.89C1019.6 568.587 1019.4 569.393 1019.4 570.31V590H1015Z" fill="white" fill-opacity="0.71"/>
</svg>
